<?xml version="1.0" encoding="UTF-8"?><svg id="Vrstva_4" xmlns="http://www.w3.org/2000/svg" viewBox="0 0 640 307"><defs></defs><path fill="#FFFFFF" d="M1,128.3h18.51v32.38h1.01l25.31-32.38h21.8l-27.14,34.17,27.63,42.4h-22.13l-19.07-30.1-7.4,9.35v20.75H1v-76.57Z"></path><path fill="#FFFFFF" d="M74.93,128.3h31.63c17.2,0,27.93,9.76,27.93,25.5,0,10.58-4.86,18.1-13.27,21.91l15.89,29.16h-20.19l-13.98-26.21h-9.5v26.21h-18.51v-76.57ZM102.56,164.08c8.3,0,12.75-3.18,12.75-10.28s-4.45-10.58-12.75-10.58h-9.12v20.86h9.12Z"></path><path fill="#FFFFFF" d="M145.44,128.3h18.51v30.73h30.17v-30.73h18.47v76.57h-18.47v-30.77h-30.17v30.77h-18.51v-76.57Z"></path><path fill="#FFFFFF" d="M220.02,204.87l25.84-76.57h24.64l25.84,76.57h-19.89l-5.05-16.08h-26.43l-5.05,16.08h-19.89ZM266.98,174.74l-8.52-27.14h-.6l-8.49,27.14h17.61Z"></path><path fill="#FFFFFF" d="M368.94,204.87h-15.7l-30.47-44.19h-.49v44.19h-18.51v-76.57h15.93l30.13,44.12h.64v-44.12h18.47v76.57Z"></path><path fill="#FFFFFF" d="M400.59,204.87h-18.51v-76.57h18.51v76.57Z"></path><path fill="#FFFFFF" d="M463.45,156.04c-.94-7.66-6.43-12.56-14.84-12.56-11.18,0-17.91,8.49-17.91,23.11s6.88,23.11,17.8,23.11c8.11,0,13.65-4.37,14.96-11.74l18.69.11c-1.38,13.57-13.01,27.86-34.02,27.86s-36.31-14.13-36.31-39.33,15.89-39.33,36.31-39.33c18.51,0,32.15,10.47,34.02,28.79h-18.69Z"></path><path fill="#FFFFFF" d="M492.72,128.3h18.51v32.38h1.01l25.31-32.38h21.8l-27.14,34.17,27.63,42.4h-22.13l-19.07-30.1-7.4,9.35v20.75h-18.51v-76.57Z"></path><path fill="#FFFFFF" d="M585.27,128.3l16.19,32.04h.67l16.19-32.04h20.68l-28,51v25.57h-18.4v-25.57l-28.01-51h20.68ZM603.07,104.15h16.19l-11.33,16.86h-12.45l7.59-16.86Z"></path><path fill="#FFFFFF" d="M138.87,228.77h31.63c17.2,0,27.93,10.77,27.93,26.51s-10.95,26.28-28.49,26.28h-12.56v23.78h-18.51v-76.57ZM166.5,266.98c8.3,0,12.75-4.64,12.75-11.7s-4.45-11.59-12.75-11.59h-9.12v23.29h9.12Z"></path><path fill="#FFFFFF" d="M206.65,228.77h31.63c17.2,0,27.93,9.76,27.93,25.5,0,10.58-4.86,18.1-13.27,21.91l15.89,29.16h-20.19l-13.98-26.21h-9.5v26.21h-18.51v-76.57ZM234.28,264.55c8.3,0,12.75-3.18,12.75-10.28s-4.45-10.58-12.75-10.58h-9.12v20.86h9.12Z"></path><path fill="#FFFFFF" d="M310.49,306.39c-20.64,0-36.53-14.13-36.53-39.33s15.89-39.33,36.53-39.33,36.57,14.02,36.57,39.33-16,39.33-36.57,39.33ZM310.49,243.95c-11.03,0-17.65,8.11-17.65,23.11s6.62,23.11,17.65,23.11,17.65-8.11,17.65-23.11-6.58-23.11-17.65-23.11Z"></path><path fill="#FFFFFF" d="M422.07,228.77v50.59c0,17.42-13.12,26.96-32.38,26.96s-32.42-9.53-32.42-26.96v-50.59h18.51v49.88c0,6.92,5.61,11.37,13.91,11.37s14.02-4.45,14.02-11.37v-49.88h18.36Z"></path><path fill="#FFFFFF" d="M435.03,305.35v-76.57h28.27c23.37,0,37.84,14.36,37.84,38.25s-14.47,38.32-37.8,38.32h-28.3ZM462.62,289.57c12.9,0,19.97-5.98,19.97-22.55s-7.07-22.47-20.23-22.47h-8.82v45.02h9.09Z"></path><path fill="#A9CCE3" d="M386.48,64.94v18.31c-47.93-26.88-84.61,46-137.74,8.12,0-7.2,0-11.11,0-18.31,53.37,37.94,89.51-34.98,137.74-8.12Z"></path><path fill="#5BA0CE" d="M386.48,35.82v18.31c-47.93-26.88-84.61,46-137.74,8.12,0-7.2,0-11.11,0-18.31,53.37,37.94,89.51-34.98,137.74-8.12Z"></path><path fill="#FFFFFF" d="M386.48,6.7v18.31c-47.93-26.88-84.61,46-137.74,8.12,0-7.2,0-11.11,0-18.31,53.37,37.94,89.51-34.98,137.74-8.12Z"></path></svg>