<?xml version="1.0" encoding="UTF-8"?><svg id="Vrstva_4" xmlns="http://www.w3.org/2000/svg" viewBox="0 0 640 162"><defs></defs><path fill="#00257B" d="M131.96,19.83h14.71v25.73h.8l20.12-25.73h17.32l-21.57,27.16,21.96,33.7h-17.59l-15.15-23.92-5.88,7.43v16.49h-14.71V19.83Z"></path><path fill="#00257B" d="M190.71,19.83h25.14c13.67,0,22.2,7.76,22.2,20.27,0,8.41-3.86,14.38-10.55,17.41l12.63,23.18h-16.05l-11.11-20.83h-7.55v20.83h-14.71V19.83ZM212.67,48.27c6.6,0,10.13-2.53,10.13-8.17s-3.54-8.41-10.13-8.41h-7.25v16.58h7.25Z"></path><path fill="#00257B" d="M246.75,19.83h14.71v24.43h23.98v-24.43h14.68v60.86h-14.68v-24.46h-23.98v24.46h-14.71V19.83Z"></path><path fill="#00257B" d="M306.02,80.69l20.53-60.86h19.58l20.53,60.86h-15.81l-4.01-12.78h-21.01l-4.01,12.78h-15.81ZM343.34,56.74l-6.77-21.57h-.48l-6.75,21.57h14Z"></path><path fill="#00257B" d="M424.38,80.69h-12.48l-24.22-35.12h-.39v35.12h-14.71V19.83h12.66l23.95,35.06h.51V19.83h14.68v60.86Z"></path><path fill="#00257B" d="M449.53,80.69h-14.71V19.83h14.71v60.86Z"></path><path fill="#00257B" d="M499.48,41.88c-.74-6.09-5.11-9.98-11.8-9.98-8.88,0-14.23,6.75-14.23,18.36s5.47,18.36,14.14,18.36c6.45,0,10.85-3.48,11.89-9.33l14.86.09c-1.1,10.79-10.34,22.14-27.04,22.14s-28.85-11.23-28.85-31.26,12.63-31.26,28.85-31.26c14.71,0,25.55,8.32,27.04,22.88h-14.86Z"></path><path fill="#00257B" d="M522.75,19.83h14.71v25.73h.8l20.12-25.73h17.32l-21.57,27.16,21.96,33.7h-17.59l-15.15-23.92-5.88,7.43v16.49h-14.71V19.83Z"></path><path fill="#00257B" d="M596.3,19.83l12.87,25.47h.53l12.87-25.47h16.43l-22.26,40.53v20.32h-14.62v-20.32l-22.26-40.53h16.43ZM610.44.63h12.87l-9,13.4h-9.89l6.03-13.4Z"></path><path fill="#00257B" d="M131.96,99.68h25.14c13.67,0,22.2,8.56,22.2,21.07s-8.71,20.89-22.64,20.89h-9.98v18.9h-14.71v-60.86ZM153.92,130.05c6.6,0,10.13-3.68,10.13-9.3s-3.54-9.21-10.13-9.21h-7.25v18.51h7.25Z"></path><path fill="#00257B" d="M185.82,99.68h25.14c13.67,0,22.2,7.76,22.2,20.27,0,8.41-3.86,14.38-10.55,17.41l12.63,23.18h-16.05l-11.11-20.83h-7.55v20.83h-14.71v-60.86ZM207.78,128.12c6.6,0,10.13-2.53,10.13-8.17s-3.54-8.41-10.13-8.41h-7.25v16.58h7.25Z"></path><path fill="#00257B" d="M268.35,161.37c-16.4,0-29.03-11.23-29.03-31.26s12.63-31.26,29.03-31.26,29.06,11.14,29.06,31.26-12.72,31.26-29.06,31.26ZM268.35,111.74c-8.77,0-14.03,6.45-14.03,18.36s5.26,18.36,14.03,18.36,14.03-6.45,14.03-18.36-5.23-18.36-14.03-18.36Z"></path><path fill="#00257B" d="M357.02,99.68v40.2c0,13.85-10.43,21.42-25.73,21.42s-25.76-7.58-25.76-21.42v-40.2h14.71v39.64c0,5.5,4.46,9.03,11.05,9.03s11.14-3.54,11.14-9.03v-39.64h14.59Z"></path><path fill="#00257B" d="M367.32,160.53v-60.86h22.46c18.57,0,30.07,11.41,30.07,30.4s-11.5,30.46-30.04,30.46h-22.49ZM389.25,147.99c10.25,0,15.87-4.75,15.87-17.92s-5.62-17.86-16.08-17.86h-7.01v35.78h7.22Z"></path><path fill="#A9CCE3" d="M110.46,65.81v14.55c-38.09-21.36-67.25,36.55-109.46,6.45,0-5.72,0-8.83,0-14.55,42.41,30.15,71.14-27.8,109.46-6.45Z"></path><path fill="#5BA0CE" d="M110.46,42.67v14.55C72.37,35.86,43.22,93.78,1,63.68c0-5.72,0-8.83,0-14.55,42.41,30.15,71.14-27.8,109.46-6.45Z"></path><path fill="#0077C0" d="M110.46,19.53v14.55C72.37,12.72,43.22,70.64,1,40.54c0-5.72,0-8.83,0-14.55C43.41,56.13,72.14-1.82,110.46,19.53Z"></path></svg>