<?xml version="1.0" encoding="UTF-8"?><svg id="Vrstva_4" xmlns="http://www.w3.org/2000/svg" viewBox="0 0 360 360"><defs></defs><path fill="#0077C0" d="M276.4,198.71v25.63c-67.09-37.62-118.44,64.38-192.79,11.36,0-10.08,0-15.55,0-25.63,74.7,53.1,125.29-48.96,192.79-11.36Z"></path><path fill="#5BA0CE" d="M276.4,157.96v25.63c-67.09-37.62-118.44,64.38-192.79,11.36,0-10.08,0-15.55,0-25.63,74.7,53.1,125.29-48.96,192.79-11.36Z"></path><path fill="#A9CCE3" d="M276.4,117.2v25.63c-67.09-37.62-118.44,64.38-192.79,11.36,0-10.08,0-15.55,0-25.63,74.7,53.1,125.29-48.96,192.79-11.36Z"></path></svg>