<?xml version="1.0" encoding="UTF-8"?><svg id="Vrstva_4" xmlns="http://www.w3.org/2000/svg" viewBox="0 0 360 360"><defs></defs><rect fill="none" x="-24.75" y="-16.18" width="409.5" height="392.36"></rect><path fill="#A9CCE3" d="M359.5,214.84v47.73C234.57,192.51,138.96,382.46.5,283.72c0-18.77,0-28.96,0-47.73,139.09,98.89,233.31-91.17,359-21.15Z"></path><path fill="#5BA0CE" d="M359.5,138.95v47.73C234.57,116.62,138.96,306.56.5,207.83c0-18.77,0-28.96,0-47.73,139.09,98.89,233.31-91.17,359-21.15Z"></path><path fill="#0077C0" d="M359.5,63.06v47.73C234.57,40.73,138.96,230.67.5,131.94c0-18.77,0-28.96,0-47.73C139.59,183.1,233.81-6.96,359.5,63.06Z"></path></svg>